<?xml version="1.0" standalone="no"?>
<!DOCTYPE svg PUBLIC "-//W3C//DTD SVG 20010904//EN"
 "http://www.w3.org/TR/2001/REC-SVG-20010904/DTD/svg10.dtd">
<svg version="1.0" xmlns="http://www.w3.org/2000/svg"
 width="2000.000000pt" height="2000.000000pt" viewBox="0 0 2000.000000 2000.000000"
 preserveAspectRatio="xMidYMid meet">
<metadata>
Created by potrace 1.14, written by Peter Selinger 2001-2017
</metadata>
<g transform="translate(0.000000,2000.000000) scale(0.100000,-0.100000)"
fill="#000000" stroke="none">
<path d="M7226 16495 l-2768 -2765 1793 -1801 c987 -991 2037 -2042 2334
-2336 l540 -534 629 1 c489 0 632 -2 645 -12 33 -26 -26 40 -169 185 -80 82
-147 151 -150 155 -2 4 120 -117 273 -268 l277 -275 -322 -325 c-178 -178 183
179 802 795 619 615 1868 1863 2777 2773 l1652 1655 -1887 1895 c-1038 1042
-2197 2202 -2577 2578 l-690 684 -360 0 -361 0 -44 -45 c-24 -25 -49 -45 -54
-45 -6 0 90 101 214 225 124 124 222 225 219 225 -3 0 -1251 -1244 -2773
-2765z m5568 -1311 l1429 -1435 -473 -477 c-1092 -1102 -3774 -3771 -3780
-3762 -3 6 -946 953 -2096 2105 -1149 1153 -2090 2100 -2092 2105 -2 5 949
961 2113 2125 l2115 2116 678 -671 c373 -368 1320 -1316 2106 -2106z"/>
<path d="M12570 6313 l0 -698 -56 63 c-93 104 -233 192 -365 228 -96 27 -315
25 -431 -4 -160 -39 -273 -103 -391 -220 -194 -190 -320 -492 -356 -851 -14
-135 -14 -403 0 -533 22 -204 89 -416 182 -574 78 -133 223 -275 342 -336 110
-56 191 -82 313 -98 108 -15 258 -8 347 15 164 43 317 149 436 303 l25 33 29
-156 28 -155 294 0 293 0 0 1840 0 1840 -345 0 -345 0 0 -697z m-305 -937
c106 -28 197 -90 265 -180 l40 -53 0 -550 0 -550 -60 -65 c-67 -73 -160 -128
-251 -148 -35 -8 -97 -11 -161 -8 -90 4 -114 9 -169 35 -140 66 -224 205 -264
437 -18 105 -20 405 -4 523 42 310 159 501 342 558 55 18 199 18 262 1z"/>
<path d="M8015 6824 c-217 -48 -368 -195 -436 -424 -20 -68 -23 -101 -26 -372
l-5 -298 -209 0 -209 0 0 -60 0 -60 208 -2 207 -3 3 -1142 2 -1143 60 0 60 0
0 1145 0 1145 320 0 320 0 0 60 0 60 -321 0 -321 0 4 283 c4 260 6 287 27 352
29 88 62 146 120 209 90 95 182 135 336 143 70 4 129 0 194 -11 52 -9 95 -15
97 -13 2 2 6 28 10 58 l6 56 -58 12 c-96 20 -308 23 -389 5z"/>
<path d="M8710 5045 l0 -1715 1100 0 1100 0 0 265 0 265 -755 0 -755 0 0 490
0 490 635 0 635 0 0 265 0 265 -635 0 -635 0 0 430 0 430 755 0 755 0 0 265 0
265 -1100 0 -1100 0 0 -1715z"/>
<path d="M2040 6603 c-310 -29 -550 -131 -727 -309 -65 -66 -90 -101 -127
-176 -62 -125 -79 -209 -73 -368 3 -105 9 -138 34 -210 53 -154 145 -261 308
-360 164 -99 323 -165 694 -289 618 -207 876 -354 979 -560 43 -86 55 -157 50
-281 -6 -126 -27 -187 -98 -287 -58 -83 -129 -146 -239 -212 -391 -235 -1048
-201 -1436 74 -148 105 -251 281 -270 460 -3 33 -8 79 -11 103 l-5 42 -50 0
-49 0 0 -72 c0 -145 41 -305 107 -418 109 -186 347 -339 643 -415 371 -94 779
-61 1075 88 201 100 327 220 399 380 41 89 54 141 62 248 12 158 -26 313 -107
434 -77 115 -180 191 -404 300 -176 85 -269 121 -615 235 -402 133 -531 187
-682 287 -182 120 -276 305 -265 523 8 159 59 271 182 395 164 166 386 253
693 271 562 34 989 -283 1037 -768 l7 -68 48 0 c31 0 50 5 53 14 7 17 -9 197
-22 256 -86 381 -405 629 -873 679 -91 10 -237 12 -318 4z"/>
<path d="M18160 5965 c0 -24 2 -25 70 -25 l70 0 0 -185 0 -185 25 0 25 0 0
185 0 185 70 0 c68 0 70 1 70 25 l0 25 -165 0 -165 0 0 -25z"/>
<path d="M18520 5780 l0 -210 30 0 30 0 1 173 1 172 57 -172 c53 -163 57 -173
81 -173 24 0 29 10 87 183 l61 182 1 -182 1 -183 25 0 25 0 0 210 0 210 -39 0
-39 0 -59 -177 -60 -178 -57 178 -57 177 -44 0 -45 0 0 -210z"/>
<path d="M14235 5916 c-436 -68 -726 -430 -811 -1013 -27 -178 -24 -537 5
-698 39 -217 95 -366 195 -519 165 -254 404 -388 721 -403 255 -12 446 58 612
226 l66 66 -6 -175 c-6 -189 -14 -237 -53 -315 -73 -146 -208 -213 -454 -222
-251 -10 -476 34 -721 141 -13 6 -24 -32 -73 -249 -32 -141 -56 -258 -54 -260
2 -2 40 -20 85 -39 116 -50 253 -92 400 -123 116 -24 148 -27 338 -27 127 0
242 5 290 13 294 48 504 147 670 316 121 122 195 262 238 450 21 88 21 114 24
1443 l4 1352 -299 0 -299 0 -22 -137 c-33 -204 -26 -192 -75 -125 -85 113
-219 219 -335 263 -124 47 -286 59 -446 35z m535 -554 c82 -32 159 -90 207
-156 l43 -58 0 -554 0 -553 -42 -52 c-51 -62 -117 -109 -196 -140 -50 -20 -75
-23 -197 -24 -122 0 -147 3 -195 22 -168 68 -263 253 -290 561 -13 142 -6 321
16 457 47 287 151 450 323 507 78 25 252 20 331 -10z"/>
<path d="M16870 5924 c-14 -2 -59 -9 -100 -15 -496 -73 -856 -494 -921 -1078
-17 -157 -6 -499 20 -623 89 -410 343 -719 698 -847 165 -60 265 -75 498 -75
170 1 232 5 327 22 136 25 309 79 425 132 75 35 223 124 223 134 0 4 -180 418
-184 423 0 0 -46 -21 -101 -47 -197 -96 -326 -128 -555 -136 -246 -10 -361 25
-480 145 -95 96 -163 253 -172 396 l-3 50 763 3 762 2 0 264 c0 216 -4 285
-19 378 -82 472 -351 767 -781 853 -73 15 -350 28 -400 19z m231 -534 c183
-35 277 -170 295 -427 l7 -93 -427 0 -426 0 6 43 c24 156 85 296 163 375 92
91 235 130 382 102z"/>
<path d="M6585 5753 c-232 -49 -412 -193 -536 -427 l-37 -69 -6 49 c-3 27 -8
112 -11 189 -3 77 -8 161 -11 188 l-6 47 -49 0 -49 0 0 -1205 0 -1205 65 0 65
0 0 808 c0 786 1 809 21 882 76 277 219 469 424 571 112 55 200 72 362 67
l132 -4 6 49 c4 26 5 51 2 54 -26 25 -262 30 -372 6z"/>
<path d="M3640 5043 c0 -704 7 -914 35 -1063 72 -381 249 -600 553 -682 101
-27 328 -29 447 -3 233 50 429 182 552 372 l40 62 7 -61 c3 -34 6 -91 6 -128
0 -37 3 -101 6 -143 l7 -77 48 0 49 0 0 1205 0 1205 -60 0 -60 0 0 -839 0
-839 -25 -86 c-80 -277 -262 -465 -517 -536 -109 -30 -279 -44 -379 -30 -291
40 -472 229 -551 577 -22 96 -22 112 -25 926 l-4 827 -64 0 -65 0 0 -687z"/>
</g>
</svg>
